<?xml version="1.0" encoding="utf-8"?>
<!-- Generator: Adobe Illustrator 19.2.1, SVG Export Plug-In . SVG Version: 6.00 Build 0)  -->
<svg version="1.1" id="Layer_1" xmlns="http://www.w3.org/2000/svg" xmlns:xlink="http://www.w3.org/1999/xlink" x="0px" y="0px"
	 viewBox="0 0 16 15.4" style="enable-background:new 0 0 16 15.4;" xml:space="preserve">
<title>store-filled</title>
<desc>Created with Sketch.</desc>
<g>
	<g>
		<path d="M12.9,8.7l2-4.1H3.7v-2L3,2H1v1.3h1.3v7.5L3,11.4h8.3l0.7-1.3H3.6V8.8h9.2V8.7z M4.7,11.9c0.4,0,0.8,0.4,0.8,0.8
			c0,0.4-0.4,0.8-0.8,0.8s-0.8-0.4-0.8-0.8C3.9,12.2,4.2,11.9,4.7,11.9z M9.7,11.9c0.4,0,0.8,0.4,0.8,0.8c0,0.4-0.4,0.8-0.8,0.8
			c-0.4,0-0.8-0.4-0.8-0.8C8.9,12.2,9.3,11.9,9.7,11.9z"/>
	</g>
</g>
<text transform="matrix(1 0 0 1 0 31)" style="font-family:'Arial-BoldMT'; font-size:5px;">Created by Futishia</text>
<text transform="matrix(1 0 0 1 0 36)" style="font-family:'Arial-BoldMT'; font-size:5px;">from the Noun Project</text>
</svg>
